# xmcd
#
# Track frame offsets:
# 150
# 21960
# 40749
# 62391
# 83275
# 103635
# 120310
# 140265
# 162996
# 181922
# 202800
# 220392
# 237361
# 260650
# 279124
# 299136
# 317704
# 335757
#
# Disc length: 4752 seconds
#
# Revision: 1
# Processed by: cddbd v1.4PL0 Copyright (c) Steve Scherf et al.
# Submitted via: CedeCatalogueitor 2.5 http://usuarios.lycos.es/kakasboy
#
DISCID=fd128e12
DTITLE=Presuntos Implicados - Selección Natural Cd2
DYEAR=2002
DGENRE=
TTITLE0=Alma De Blues ( Versión 02 )
TTITLE1=Gente
TTITLE2=Nunca Es Para Siempre
TTITLE3=Cómo Hemos Cambiado ( 92 )
TTITLE4=Las Palabras De Amor
TTITLE5=Esta Tarde Vi Llover
TTITLE6=Sed De Amor
TTITLE7=Cada Historia (con Ana Torroja)
TTITLE8=Sentir Su Calor
TTITLE9=Tu Tierra Y Mis Semillas
TTITLE10=Nadie Como Tú (con Pancho Céspedes)
TTITLE11=Recibes Cartas
TTITLE12=En La Oscuridad
TTITLE13=Por Querer
TTITLE14=Icaro
TTITLE15=De Sol A Sol
TTITLE16=No Hay Humor
TTITLE17=Miss Circuitos (versión 02)
EXTD=
EXTT0=
EXTT1=
EXTT2=
EXTT3=
EXTT4=
EXTT5=
EXTT6=
EXTT7=
EXTT8=
EXTT9=
EXTT10=
EXTT11=
EXTT12=
EXTT13=
EXTT14=
EXTT15=
EXTT16=
EXTT17=
PLAYORDER=
